<svg id="Layer_1" data-name="Layer 1" xmlns="http://www.w3.org/2000/svg" xmlns:xlink="http://www.w3.org/1999/xlink" viewBox="0 0 790.8 195.12" >
  <defs>
    <style>
      .cls-1 {
        filter: url(#drop-shadow-1);
      }

      .cls-2 {
        filter: url(#drop-shadow-2);
      }

      .cls-3, .cls-4, .cls-5, .cls-6, .cls-7, .cls-8, .cls-9, .cls-10, .cls-11, .cls-12, .cls-13, .cls-14 {
        fill: #41695b;
      }

      .cls-4 {
        filter: url(#drop-shadow-8);
      }

      .cls-5 {
        filter: url(#drop-shadow-6);
      }

      .cls-6 {
        filter: url(#drop-shadow-7);
      }

      .cls-7 {
        filter: url(#drop-shadow-5);
      }

      .cls-8 {
        filter: url(#drop-shadow-4);
      }

      .cls-9 {
        filter: url(#drop-shadow-3);
      }

      .cls-10 {
        filter: url(#drop-shadow-9);
      }

      .cls-15 {
        filter: url(#drop-shadow-14);
      }

      .cls-11 {
        filter: url(#drop-shadow-10);
      }

      .cls-12 {
        filter: url(#drop-shadow-12);
      }

      .cls-13 {
        filter: url(#drop-shadow-11);
      }

      .cls-14 {
        filter: url(#drop-shadow-13);
      }
    </style>
    <filter id="drop-shadow-1" x="536.16" y=".24" width="80.4" height="104.64" filterUnits="userSpaceOnUse">
      <feOffset dx="3" dy="3"></feOffset>
      <feGaussianBlur result="blur" stdDeviation="1"></feGaussianBlur>
      <feFlood flood-color="#fff" flood-opacity=".82"></feFlood>
      <feComposite in2="blur" operator="in"></feComposite>
      <feComposite in="SourceGraphic"></feComposite>
    </filter>
    <filter id="drop-shadow-2" x="625.44" y=".48" width="171.36" height="194.64" filterUnits="userSpaceOnUse">
      <feOffset dx="3" dy="3"></feOffset>
      <feGaussianBlur result="blur-2" stdDeviation="1"></feGaussianBlur>
      <feFlood flood-color="#fff" flood-opacity=".82"></feFlood>
      <feComposite in2="blur-2" operator="in"></feComposite>
      <feComposite in="SourceGraphic"></feComposite>
    </filter>
    <filter id="drop-shadow-3" x="223.68" y="0" width="99.36" height="105.84" filterUnits="userSpaceOnUse">
      <feOffset dx="3" dy="3"></feOffset>
      <feGaussianBlur result="blur-3" stdDeviation="1"></feGaussianBlur>
      <feFlood flood-color="#fff" flood-opacity=".82"></feFlood>
      <feComposite in2="blur-3" operator="in"></feComposite>
      <feComposite in="SourceGraphic"></feComposite>
    </filter>
    <filter id="drop-shadow-4" x="432.96" y="0" width="99.84" height="105.84" filterUnits="userSpaceOnUse">
      <feOffset dx="3" dy="3"></feOffset>
      <feGaussianBlur result="blur-4" stdDeviation="1"></feGaussianBlur>
      <feFlood flood-color="#fff" flood-opacity=".82"></feFlood>
      <feComposite in2="blur-4" operator="in"></feComposite>
      <feComposite in="SourceGraphic"></feComposite>
    </filter>
    <filter id="drop-shadow-5" x="328.56" y=".48" width="47.76" height="105.36" filterUnits="userSpaceOnUse">
      <feOffset dx="3" dy="3"></feOffset>
      <feGaussianBlur result="blur-5" stdDeviation="1"></feGaussianBlur>
      <feFlood flood-color="#fff" flood-opacity=".82"></feFlood>
      <feComposite in2="blur-5" operator="in"></feComposite>
      <feComposite in="SourceGraphic"></feComposite>
    </filter>
    <filter id="drop-shadow-6" x="380.88" y=".48" width="47.28" height="105.36" filterUnits="userSpaceOnUse">
      <feOffset dx="3" dy="3"></feOffset>
      <feGaussianBlur result="blur-6" stdDeviation="1"></feGaussianBlur>
      <feFlood flood-color="#fff" flood-opacity=".82"></feFlood>
      <feComposite in2="blur-6" operator="in"></feComposite>
      <feComposite in="SourceGraphic"></feComposite>
    </filter>
    <filter id="drop-shadow-7" x="196.32" y="0" width="21.6" height="105.84" filterUnits="userSpaceOnUse">
      <feOffset dx="3" dy="3"></feOffset>
      <feGaussianBlur result="blur-7" stdDeviation="1"></feGaussianBlur>
      <feFlood flood-color="#fff" flood-opacity=".82"></feFlood>
      <feComposite in2="blur-7" operator="in"></feComposite>
      <feComposite in="SourceGraphic"></feComposite>
    </filter>
    <filter id="drop-shadow-8" x="0" y=".96" width="182.16" height="194.16" filterUnits="userSpaceOnUse">
      <feOffset dx="3" dy="3"></feOffset>
      <feGaussianBlur result="blur-8" stdDeviation="1"></feGaussianBlur>
      <feFlood flood-color="#fff" flood-opacity=".82"></feFlood>
      <feComposite in2="blur-8" operator="in"></feComposite>
      <feComposite in="SourceGraphic"></feComposite>
    </filter>
    <filter id="drop-shadow-9" x="223.68" y="0" width="99.36" height="105.84" filterUnits="userSpaceOnUse">
      <feOffset dx="3" dy="3"></feOffset>
      <feGaussianBlur result="blur-9" stdDeviation="1"></feGaussianBlur>
      <feFlood flood-color="#fff" flood-opacity=".82"></feFlood>
      <feComposite in2="blur-9" operator="in"></feComposite>
      <feComposite in="SourceGraphic"></feComposite>
    </filter>
    <filter id="drop-shadow-10" x="432.96" y="0" width="99.84" height="105.84" filterUnits="userSpaceOnUse">
      <feOffset dx="3" dy="3"></feOffset>
      <feGaussianBlur result="blur-10" stdDeviation="1"></feGaussianBlur>
      <feFlood flood-color="#fff" flood-opacity=".82"></feFlood>
      <feComposite in2="blur-10" operator="in"></feComposite>
      <feComposite in="SourceGraphic"></feComposite>
    </filter>
    <filter id="drop-shadow-11" x="328.56" y=".48" width="47.76" height="105.36" filterUnits="userSpaceOnUse">
      <feOffset dx="3" dy="3"></feOffset>
      <feGaussianBlur result="blur-11" stdDeviation="1"></feGaussianBlur>
      <feFlood flood-color="#fff" flood-opacity=".82"></feFlood>
      <feComposite in2="blur-11" operator="in"></feComposite>
      <feComposite in="SourceGraphic"></feComposite>
    </filter>
    <filter id="drop-shadow-12" x="380.88" y=".48" width="47.28" height="105.36" filterUnits="userSpaceOnUse">
      <feOffset dx="3" dy="3"></feOffset>
      <feGaussianBlur result="blur-12" stdDeviation="1"></feGaussianBlur>
      <feFlood flood-color="#fff" flood-opacity=".82"></feFlood>
      <feComposite in2="blur-12" operator="in"></feComposite>
      <feComposite in="SourceGraphic"></feComposite>
    </filter>
    <filter id="drop-shadow-13" x="196.32" y="0" width="21.6" height="105.84" filterUnits="userSpaceOnUse">
      <feOffset dx="3" dy="3"></feOffset>
      <feGaussianBlur result="blur-13" stdDeviation="1"></feGaussianBlur>
      <feFlood flood-color="#fff" flood-opacity=".82"></feFlood>
      <feComposite in2="blur-13" operator="in"></feComposite>
      <feComposite in="SourceGraphic"></feComposite>
    </filter>
    <filter id="drop-shadow-14" x="428.88" y="125.76" width="196.32" height="68.64" filterUnits="userSpaceOnUse">
      <feOffset dx="3" dy="3"></feOffset>
      <feGaussianBlur result="blur-14" stdDeviation="1"></feGaussianBlur>
      <feFlood flood-color="#fff" flood-opacity=".82"></feFlood>
      <feComposite in2="blur-14" operator="in"></feComposite>
      <feComposite in="SourceGraphic"></feComposite>
    </filter>
  </defs>
  <g class="cls-1">
    <path class="cls-3" d="M603.81,98.68h-60.75c-3.83,0-6.71-2.85-6.71-6.64s2.88-6.64,6.71-6.64h60.75c3.83,0,6.71,2.85,6.71,6.64s-2.88,6.64-6.71,6.64ZM597.68,56.18h-54.62c-3.83,0-6.71-2.88-6.71-6.71s2.88-6.71,6.71-6.71h54.62c3.83,0,6.71,2.88,6.71,6.71s-2.89,6.71-6.71,6.71ZM603.81,13.55h-60.75c-3.83,0-6.71-2.85-6.71-6.64s2.88-6.64,6.71-6.64h60.75c3.83,0,6.71,2.85,6.71,6.64s-2.88,6.64-6.71,6.64Z"></path>
  </g>
  <g class="cls-2">
    <path class="cls-3" d="M708.22,189.05c-1.78,0-3.53-.36-5.2-1.08-4.69-2.01-7.61-6.54-7.61-11.83V25.99h-57.04c-4.33,0-8.34-2.12-10.73-5.67-2.67-3.99-2.83-9.09-.39-13.31,2.31-4.03,6.47-6.44,11.12-6.44h139.52c5.27,0,9.8,2.9,11.81,7.56,1.54,3.67,1.45,7.53-.23,10.96-2.18,4.35-6.51,6.92-11.58,6.92h-57.04v150.14c0,5.06-2.56,9.37-6.84,11.54-1.86.92-3.79,1.37-5.78,1.37Z"></path>
  </g>
  <path class="cls-9" d="M270.31,74.37c-1.04-2.22-1.76-3.74-2.47-5.28-9.72-21-19.41-42-29.15-62.99-2.53-5.45-6.2-7.21-10.56-5.25-4.26,1.92-5.5,6.14-3.08,11.38,12.5,27.19,25.07,54.35,37.58,81.54,1.59,3.46,3.57,5.98,7.89,5.93,4.16-.05,5.96-2.67,7.44-5.89,4.58-9.95,9.16-19.9,13.75-29.84,8.08-17.5,16.21-34.98,24.22-52.52,2.04-4.47.52-8.76-3.38-10.59-4.05-1.9-8.05-.27-10.24,4.27-1.67,3.47-3.22,7.01-4.84,10.51-8.93,19.31-17.86,38.62-27.16,58.73Z"></path>
  <path class="cls-8" d="M448.38,84.61c0-2.63,0-4.6,0-6.58.01-21.64.03-43.28.03-64.92,0-2.16.09-4.36-.24-6.48-.58-3.77-2.86-6.21-6.74-6.5-3.89-.29-6.48,1.82-7.61,5.46-.49,1.58-.56,3.34-.57,5.02-.04,19.94-.02,39.88-.02,59.82,0,6.96-.13,13.91.04,20.87.14,5.84,2.86,8.35,8.69,8.43,4.33.06,8.66,0,12.99,0,21.18,0,42.37.02,63.55-.03,4.91-.01,7.9-2.72,8.17-7.01.25-4.07-2.73-7.32-7.4-7.94-1.37-.18-2.78-.12-4.17-.12-16.54-.01-33.09-.01-49.63-.02-5.4,0-10.79,0-17.08,0Z"></path>
  <path class="cls-7" d="M328.77,39.31c.08,0,.16,0,.24,0,0,10.03-.24,20.07.05,30.09.49,16.61,17.11,31.58,33.57,30.15,2.29-.2,5.2-2.19,6.42-4.21,2.93-4.83-.69-9.77-7.33-10.72-12.06-1.73-17.65-8.08-17.66-20.1-.01-16.21,0-32.42-.01-48.63,0-2.93.58-6.09-.32-8.73-.84-2.48-2.89-5.28-5.15-6.32-1.82-.84-5.6-.07-6.99,1.41-1.75,1.87-2.62,5.16-2.7,7.88-.31,9.72-.12,19.45-.12,29.18Z"></path>
  <path class="cls-5" d="M422.06,38.9s.04,0,.05,0c0-9.9.11-19.79-.09-29.68-.04-2.17-.53-5.18-1.98-6.27-2.03-1.53-5.31-2.58-7.76-2.14-3.95.7-5.33,4.17-5.32,8.14.04,18.55.02,37.11,0,55.66,0,1.54.04,3.11-.22,4.62-1.47,8.61-7.75,14.32-16.73,15.34-6.16.7-9.33,3.67-8.95,8.41.38,4.75,3.89,7.04,10.27,6.7,16.28-.87,30.21-15.03,30.68-31.55.28-9.73.05-19.48.05-29.22Z"></path>
  <path class="cls-6" d="M211.77,50c0-3.09,0-6.18,0-9.27-.03-10.97.07-21.94-.16-32.91-.1-4.74-3.42-7.83-7.52-7.76-3.84.07-6.93,3.15-7.44,7.51-.14,1.22-.08,2.47-.08,3.7,0,25.49-.02,50.99,0,76.48,0,2,0,4.04.37,5.99.84,4.36,4.65,6.77,8.98,5.78,4.92-1.13,5.87-4.87,5.87-9.2-.01-13.44,0-26.88-.02-40.33Z"></path>
  <path class="cls-4" d="M155.88,98.86c24.52,21.02,19.55,50.01,19.4,77.69-.04,7.58-6.49,12.55-14.12,12.44-7.79-.11-13.56-5.54-13.85-13.83-.33-9.6.01-19.22-.13-28.82-.33-22.2-14.63-36.49-36.71-36.54-30.87-.08-61.74.03-92.61-.03-10.07-.02-15.96-3.93-17.42-11.16-1.96-9.69,4.61-17.03,15.57-17.05,34.07-.07,68.15.07,102.22-.08,16.6-.07,28.09-9.92,28.86-24.18.81-14.94-10.21-26.76-26.38-27.57-10.17-.51-20.38-.16-30.57-.16-24.46-.01-48.93.01-73.39-.03C6.03,29.52.39,24.79.3,15.94.22,7.21,6.08,1.44,16.28,1.39c35.53-.16,71.07-.56,106.59.2,23.08.49,40.16,12.42,48.64,33.75,8.55,21.5,4.86,41.7-12.06,58.57-.82.82-1.64,1.66-2.37,2.56-.35.43-.52,1.01-1.19,2.39Z"></path>
  <path class="cls-10" d="M270.31,74.37c9.3-20.11,18.23-39.42,27.16-58.73,1.62-3.5,3.16-7.04,4.84-10.51,2.19-4.54,6.19-6.17,10.24-4.27,3.91,1.83,5.43,6.13,3.38,10.59-8.02,17.53-16.14,35.01-24.22,52.52-4.59,9.94-9.17,19.89-13.75,29.84-1.48,3.23-3.28,5.84-7.44,5.89-4.31.05-6.3-2.47-7.89-5.93-12.5-27.19-25.07-54.35-37.58-81.54-2.41-5.24-1.18-9.47,3.08-11.38,4.36-1.96,8.03-.19,10.56,5.25,9.74,20.99,19.44,41.99,29.15,62.99.71,1.53,1.43,3.06,2.47,5.28Z"></path>
  <path class="cls-11" d="M448.38,84.61c6.29,0,11.69,0,17.08,0,16.54,0,33.09,0,49.63.02,1.39,0,2.8-.06,4.17.12,4.67.62,7.65,3.87,7.4,7.94-.27,4.28-3.26,7-8.17,7.01-21.18.06-42.37.03-63.55.03-4.33,0-8.66.05-12.99,0-5.83-.08-8.55-2.59-8.69-8.43-.17-6.95-.04-13.91-.04-20.87,0-19.94-.01-39.88.02-59.82,0-1.68.07-3.44.57-5.02,1.13-3.64,3.72-5.75,7.61-5.46,3.88.29,6.16,2.73,6.74,6.5.33,2.12.24,4.31.24,6.48,0,21.64-.02,43.28-.03,64.92,0,1.98,0,3.95,0,6.58Z"></path>
  <path class="cls-13" d="M328.77,39.31c0-9.73-.19-19.46.12-29.18.09-2.72.95-6.01,2.7-7.88,1.39-1.48,5.16-2.25,6.99-1.41,2.26,1.05,4.31,3.84,5.15,6.32.9,2.64.32,5.8.32,8.73.01,16.21,0,32.42.01,48.63,0,12.02,5.6,18.37,17.66,20.1,6.65.95,10.27,5.89,7.33,10.72-1.22,2.01-4.12,4.01-6.42,4.21-16.46,1.44-33.07-13.54-33.57-30.15-.3-10.02-.05-20.06-.05-30.09-.08,0-.16,0-.24,0Z"></path>
  <path class="cls-12" d="M422.06,38.9c0,9.74.22,19.49-.05,29.22-.47,16.52-14.4,30.68-30.68,31.55-6.37.34-9.89-1.95-10.27-6.7-.38-4.74,2.79-7.71,8.95-8.41,8.98-1.01,15.26-6.72,16.73-15.34.26-1.51.22-3.08.22-4.62.02-18.55.04-37.11,0-55.66,0-3.97,1.37-7.45,5.32-8.14,2.45-.43,5.72.61,7.76,2.14,1.44,1.09,1.93,4.1,1.98,6.27.2,9.89.09,19.79.09,29.68-.02,0-.04,0-.05,0Z"></path>
  <path class="cls-14" d="M211.77,50c0,13.44,0,26.88.01,40.33,0,4.33-.95,8.07-5.87,9.2-4.33.99-8.14-1.42-8.98-5.78-.38-1.95-.37-3.99-.37-5.99-.02-25.49,0-50.99,0-76.48,0-1.24-.06-2.48.08-3.7.51-4.36,3.6-7.44,7.44-7.51,4.09-.07,7.42,3.02,7.52,7.76.22,10.97.13,21.94.16,32.91,0,3.09,0,6.18,0,9.27Z"></path>
  <g class="cls-15">
    <g>
      <path class="cls-3" d="M440.42,186.16h-7.86c-.89,0-1.49-.58-1.49-1.45s.6-1.45,1.49-1.45h7.86c10.71,0,18.64-2.53,23.57-7.51,4.28-4.29,6.46-10.55,6.46-18.63s-2.17-14.34-6.45-18.63c-4.93-4.99-12.86-7.51-23.57-7.51h-7.86c-.89,0-1.49-.58-1.49-1.45s.6-1.45,1.49-1.45h7.86c11.48,0,20.12,2.79,25.68,8.29,4.86,4.86,7.32,11.84,7.32,20.75s-2.46,15.89-7.32,20.74c-5.56,5.5-14.2,8.29-25.69,8.29Z"></path>
      <path class="cls-3" d="M440.42,188.26h-7.86c-2.05,0-3.59-1.52-3.59-3.55s1.54-3.54,3.59-3.54h7.86c10.13,0,17.56-2.32,22.07-6.89,3.89-3.89,5.85-9.65,5.85-17.16s-1.96-13.27-5.84-17.14c-4.53-4.58-11.96-6.9-22.09-6.9h-7.86c-2.05,0-3.59-1.52-3.59-3.54s1.54-3.55,3.59-3.55h7.86c12.05,0,21.19,2.99,27.16,8.89,5.27,5.28,7.94,12.76,7.94,22.24s-2.67,16.97-7.93,22.23c-5.98,5.91-15.11,8.9-27.17,8.9Z"></path>
    </g>
    <g>
      <path class="cls-3" d="M516.12,186.16c-6.3,0-11.75-2.25-16.2-6.7-4.45-4.44-6.7-9.88-6.7-16.15v-33.72c0-.89.6-1.49,1.49-1.49.84,0,1.4.6,1.4,1.49v33.72c0,5.5,1.96,10.25,5.83,14.12,3.87,3.87,8.63,5.84,14.13,5.84s10.25-1.96,14.13-5.84c3.87-3.87,5.83-8.62,5.83-14.12v-33.72c0-.89.6-1.49,1.49-1.49s1.49.6,1.49,1.49v33.72c0,6.27-2.25,11.71-6.7,16.15-4.45,4.45-9.89,6.7-16.2,6.7ZM495.52,141.82v.8h0v-.8Z"></path>
      <path class="cls-3" d="M516.12,188.26c-6.88,0-12.83-2.46-17.68-7.31-4.85-4.85-7.32-10.79-7.32-17.64v-33.72c0-2.05,1.54-3.59,3.59-3.59s3.5,1.54,3.5,3.59v33.72c0,4.92,1.76,9.18,5.22,12.64,3.46,3.46,7.72,5.22,12.64,5.22s9.18-1.76,12.64-5.22,5.22-7.72,5.22-12.64v-33.72c0-2.05,1.54-3.59,3.59-3.59s3.59,1.54,3.59,3.59v33.72c0,6.85-2.46,12.78-7.31,17.64-4.85,4.85-10.8,7.31-17.68,7.31Z"></path>
    </g>
    <g>
      <path class="cls-3" d="M587.14,186.16c-5.37,0-10.29-1.32-14.62-3.92-4.32-2.6-7.73-6.16-10.12-10.57-2.38-4.4-3.59-9.29-3.59-14.54s1.21-10.14,3.59-14.54c2.39-4.41,5.79-7.97,10.12-10.57,4.33-2.6,9.24-3.92,14.62-3.92,8.2,0,15.28,2.86,21.05,8.5,5.77,5.65,8.69,12.56,8.69,20.53s-2.93,14.88-8.69,20.53c-5.76,5.64-12.84,8.5-21.05,8.5ZM587.14,130.99c-7.31,0-13.44,2.54-18.22,7.54-4.79,5.01-7.22,11.27-7.22,18.6s2.43,13.58,7.22,18.6c4.78,5.01,10.91,7.54,18.22,7.54s13.84-2.57,19.03-7.65c5.19-5.07,7.81-11.29,7.81-18.49s-2.63-13.42-7.81-18.49c-5.19-5.08-11.59-7.65-19.03-7.65Z"></path>
      <path class="cls-3" d="M587.14,188.26c-5.76,0-11.04-1.42-15.7-4.22-4.65-2.8-8.31-6.62-10.88-11.37-2.55-4.71-3.85-9.94-3.85-15.54s1.3-10.82,3.85-15.54c2.57-4.75,6.23-8.58,10.88-11.37,4.66-2.8,9.94-4.22,15.7-4.22,8.77,0,16.35,3.06,22.51,9.1,6.19,6.06,9.32,13.47,9.32,22.03s-3.14,15.97-9.32,22.03c-6.17,6.04-13.75,9.1-22.52,9.1ZM587.14,133.09c-6.71,0-12.33,2.32-16.7,6.89-4.4,4.61-6.64,10.38-6.64,17.15s2.23,12.54,6.64,17.15c4.37,4.57,9.99,6.89,16.7,6.89s12.78-2.37,17.57-7.06c4.77-4.66,7.18-10.38,7.18-16.99s-2.42-12.32-7.18-16.99c-4.78-4.68-10.69-7.06-17.57-7.06Z"></path>
    </g>
  </g>
</svg>
